<svg xmlns="http://www.w3.org/2000/svg" width="21" height="18.97" viewBox="0 0 21 18.97">
  <defs>
    <style>
      .cls-1 {
        fill: #fff;
        fill-rule: evenodd;
      }
    </style>
  </defs>
  <path id="Фигура_13" data-name="Фигура 13" class="cls-1" d="M851.854,2323.53l-5.3-5.34a0.918,0.918,0,0,1,1.292-1.3l3.737,3.83v-9.85a0.919,0.919,0,0,1,1.835,0v9.85l3.738-3.83a0.917,0.917,0,0,1,1.292,1.3l-5.3,5.34A0.945,0.945,0,0,1,851.854,2323.53ZM842,2328.11v-5.95a0.884,0.884,0,0,1,1.767,0v5.06h17.466v-5.06a0.884,0.884,0,0,1,1.767,0v5.95a0.9,0.9,0,0,1-.884.89H842.883A0.9,0.9,0,0,1,842,2328.11Z" transform="translate(-842 -2310.03)"/>
</svg>
