<svg xmlns="http://www.w3.org/2000/svg" width="21.97" height="21.969" viewBox="0 0 21.97 21.969">
  <defs>
    <style>
      .cls-1 {
        fill-rule: evenodd;
      }
    </style>
  </defs>
  <path id="find" class="cls-1" d="M1146.67,46a8.674,8.674,0,1,0,4.28,16.219l5.08,5.086a2.316,2.316,0,1,0,3.28-3.27l-5.09-5.087a8.6,8.6,0,0,0,1.13-4.274A8.693,8.693,0,0,0,1146.67,46h0Zm0,1.735a6.939,6.939,0,1,1-6.94,6.939A6.922,6.922,0,0,1,1146.67,47.734Zm6.53,12.64,4.88,4.879a0.584,0.584,0,0,1-.83.822l-4.88-4.879a8.435,8.435,0,0,0,.83-0.822h0Z" transform="translate(-1138 -46)"/>
</svg>
