<svg xmlns="http://www.w3.org/2000/svg" width="57" height="65" viewBox="0 0 57 65">
  <defs>
    <style>
      .cls-1 {
        fill: #1d4c96;
        fill-rule: evenodd;
      }
    </style>
  </defs>
  <path id="Фигура_5" data-name="Фигура 5" class="cls-1" d="M698.689,1771.15a1.034,1.034,0,0,0,.382-0.8v-47.16a1.028,1.028,0,0,0-1.024-1.04H668.405a5.785,5.785,0,0,0-11.1,0h-3.283a1.028,1.028,0,0,0-1.024,1.04v58.77a1.028,1.028,0,0,0,1.024,1.04h32.539a1.012,1.012,0,0,0,.806-0.39Zm-11.093,8.3v-8.07h7.968Zm-24.74-59.38a3.761,3.761,0,0,1,3.344,2.08h-6.689A3.774,3.774,0,0,1,662.856,1720.07Zm-7.807,4.15h11.563v7.26a1.708,1.708,0,1,1-3.415,0v-4.15a1.025,1.025,0,1,0-2.049,0v4.15a3.757,3.757,0,1,0,7.513,0v-7.26h28.361v45.09h-10.45a1.029,1.029,0,0,0-1.025,1.04v10.58h-30.5v-56.71Zm34.8,41.56a1.035,1.035,0,0,0,0-2.07H662.221a1.035,1.035,0,0,0,0,2.07H689.85Zm-27.629-6.22H689.85a1.04,1.04,0,0,0,0-2.08H662.221A1.04,1.04,0,0,0,662.221,1759.56Zm0-6.23H689.85a1.035,1.035,0,0,0,0-2.07H662.221A1.035,1.035,0,0,0,662.221,1753.33Zm0-6.22H689.85a1.035,1.035,0,0,0,0-2.07H662.221A1.035,1.035,0,0,0,662.221,1747.11Zm0-6.22H689.85a1.04,1.04,0,0,0,0-2.08H662.221A1.04,1.04,0,0,0,662.221,1740.89Zm41.29-18.74h-1.366a1.035,1.035,0,0,0,0,2.07h0.342v56.71H691.548a1.035,1.035,0,0,0,0,2.07h11.963a1.029,1.029,0,0,0,1.025-1.04v-58.77A1.029,1.029,0,0,0,703.511,1722.15Zm5.464,0h-1.366a1.035,1.035,0,0,0,0,2.07h0.342v56.71h-0.342a1.035,1.035,0,0,0,0,2.07h1.366a1.029,1.029,0,0,0,1.025-1.04v-58.77A1.029,1.029,0,0,0,708.975,1722.15Z" transform="translate(-653 -1718)"/>
</svg>
