<svg xmlns="http://www.w3.org/2000/svg" width="60" height="66" viewBox="0 0 60 66">
  <defs>
    <style>
      .cls-1 {
        fill: #1d4c96;
        fill-rule: evenodd;
      }
    </style>
  </defs>
  <path id="Фигура_6" data-name="Фигура 6" class="cls-1" d="M697.727,1833.9a4.4,4.4,0,1,0,4.364,4.4A4.381,4.381,0,0,0,697.727,1833.9Zm0,6.6a2.2,2.2,0,1,1,2.182-2.2A2.194,2.194,0,0,1,697.727,1840.5Zm1.091,3.3h-2.182a5.478,5.478,0,0,0-5.454,5.5v6.6a1.094,1.094,0,0,0,1.091,1.1h10.909a1.094,1.094,0,0,0,1.091-1.1v-6.6A5.48,5.48,0,0,0,698.818,1843.8Zm3.273,11h-8.727v-5.5a3.288,3.288,0,0,1,3.272-3.3h2.182a3.288,3.288,0,0,1,3.273,3.3v5.5Zm-19.637-20.9a4.4,4.4,0,1,0,4.364,4.4A4.382,4.382,0,0,0,682.454,1833.9Zm0,6.6a2.2,2.2,0,1,1,2.182-2.2A2.193,2.193,0,0,1,682.454,1840.5Zm1.091,3.3h-2.181a5.48,5.48,0,0,0-5.455,5.5v6.6A1.094,1.094,0,0,0,677,1857h10.909a1.094,1.094,0,0,0,1.091-1.1v-6.6A5.48,5.48,0,0,0,683.545,1843.8Zm3.273,11h-8.727v-5.5a3.288,3.288,0,0,1,3.273-3.3h2.181a3.288,3.288,0,0,1,3.273,3.3v5.5Zm-19.636-20.9a4.4,4.4,0,1,0,4.363,4.4A4.382,4.382,0,0,0,667.182,1833.9Zm0,6.6a2.2,2.2,0,1,1,2.182-2.2A2.194,2.194,0,0,1,667.182,1840.5Zm1.091,3.3h-2.182a5.48,5.48,0,0,0-5.455,5.5v6.6a1.094,1.094,0,0,0,1.091,1.1h10.909a1.094,1.094,0,0,0,1.091-1.1v-6.6A5.478,5.478,0,0,0,668.273,1843.8Zm3.272,11h-8.727v-5.5a3.288,3.288,0,0,1,3.273-3.3h2.182a3.288,3.288,0,0,1,3.272,3.3v5.5Zm10.909-46.2h-24a5.48,5.48,0,0,0-5.455,5.5v15.4a1.094,1.094,0,0,0,1.091,1.1h15.273a1.094,1.094,0,0,0,1.091-1.1v-14.3h12a1.094,1.094,0,0,0,1.091-1.1v-4.4A1.094,1.094,0,0,0,682.454,1808.6Zm-1.09,4.4h-12a1.094,1.094,0,0,0-1.091,1.1v14.3H655.182v-14.3a3.288,3.288,0,0,1,3.273-3.3h22.909v2.2Zm30.545-22H674.818a1.094,1.094,0,0,0-1.091,1.1v14.3h2.182v-13.2h34.909v28.6H675.909v-4.4h-2.182v5.5a1.094,1.094,0,0,0,1.091,1.1h37.091a1.094,1.094,0,0,0,1.091-1.1v-30.8A1.094,1.094,0,0,0,711.909,1791Zm-31.636,6.6h2.181v2.2h-2.181v-2.2Zm4.363,0h21.818v2.2H684.636v-2.2Zm-4.363,4.4h26.181v2.2H680.273V1802Zm5.454,4.4h20.727v2.2H685.727v-2.2Zm0,4.4h20.727v2.2H685.727v-2.2Zm0,4.4h20.727v2.2H685.727v-2.2Zm-24-18.7a4.381,4.381,0,0,0-4.363,4.4v2.2a4.364,4.364,0,1,0,8.727,0v-2.2A4.382,4.382,0,0,0,661.727,1796.5Zm2.182,6.6a2.182,2.182,0,1,1-4.364,0v-2.2a2.182,2.182,0,1,1,4.364,0v2.2Z" transform="translate(-653 -1791)"/>
</svg>
