<svg xmlns="http://www.w3.org/2000/svg" width="25" height="16" viewBox="0 0 25 16">
  <defs>
    <style>
      .cls-1 {
        fill-rule: evenodd;
      }
    </style>
  </defs>
  <path id="Фигура_3" data-name="Фигура 3" class="cls-1" d="M822.042,2093a8.005,8.005,0,1,0,8.034,8,8.118,8.118,0,0,0-.165-1.6l-0.045-.17h-7.824v2.66H827.4a5.428,5.428,0,0,1-5.356,4.45,5.335,5.335,0,1,1,3.5-9.37l1.92-1.87A8.03,8.03,0,0,0,822.042,2093Zm12.5,3.56v2.67h-2.678V2101h2.678v2.67h1.785V2101H839v-1.77h-2.678v-2.67h-1.785Z" transform="translate(-814 -2093)"/>
</svg>
