<svg xmlns="http://www.w3.org/2000/svg" width="23" height="13" viewBox="0 0 23 13">
  <defs>
    <style>
      .cls-1 {
        fill-rule: evenodd;
      }
    </style>
  </defs>
  <path id="Фигура_1" data-name="Фигура 1" class="cls-1" d="M877.878,2106.74a1.271,1.271,0,0,0-.078-0.15,11.957,11.957,0,0,0-2.287-2.62l-0.024-.02-0.011-.02-0.013-.01h-0.012a12.7,12.7,0,0,1-.97-0.97,0.908,0.908,0,0,1-.167-0.96,8.651,8.651,0,0,1,1.077-1.56c0.328-.42.587-0.75,0.779-1,1.381-1.82,1.98-2.99,1.8-3.49l-0.071-.12a0.714,0.714,0,0,0-.371-0.2,1.883,1.883,0,0,0-.767-0.03l-3.449.03a0.473,0.473,0,0,0-.239,0c-0.1.03-.156,0.04-0.156,0.04l-0.06.03-0.048.03a0.72,0.72,0,0,0-.132.13,0.851,0.851,0,0,0-.119.21,20.093,20.093,0,0,1-1.282,2.67c-0.295.49-.566,0.91-0.814,1.27a6.263,6.263,0,0,1-.623.8,5.222,5.222,0,0,1-.455.41,0.484,0.484,0,0,1-.311.13,1.882,1.882,0,0,0-.2-0.05,0.8,0.8,0,0,1-.269-0.29,1.3,1.3,0,0,1-.138-0.46c-0.024-.19-0.038-0.35-0.042-0.49s0-.32.006-0.56,0.012-.42.012-0.5c0-.3.006-0.63,0.018-0.98s0.022-.63.03-0.84,0.012-.42.012-0.65a2.7,2.7,0,0,0-.042-0.54,1.8,1.8,0,0,0-.125-0.38,0.6,0.6,0,0,0-.246-0.28,1.116,1.116,0,0,0-.4-0.16,7.769,7.769,0,0,0-1.617-.16,7.689,7.689,0,0,0-2.862.29,1.478,1.478,0,0,0-.455.35c-0.144.18-.164,0.27-0.06,0.29a1.465,1.465,0,0,1,1.018.51l0.072,0.14a2.128,2.128,0,0,1,.167.54,5.587,5.587,0,0,1,.108.87,9.074,9.074,0,0,1,0,1.48c-0.04.41-.077,0.73-0.114,0.96a1.9,1.9,0,0,1-.161.56,2.37,2.37,0,0,1-.144.26,0.276,0.276,0,0,1-.06.06,0.89,0.89,0,0,1-.323.06,0.75,0.75,0,0,1-.407-0.16,3.477,3.477,0,0,1-.5-0.46,7.03,7.03,0,0,1-.581-0.81,13.814,13.814,0,0,1-.671-1.24l-0.191-.34c-0.12-.22-0.284-0.55-0.491-0.97s-0.392-.83-0.551-1.23a0.834,0.834,0,0,0-.287-0.38l-0.06-.03a0.694,0.694,0,0,0-.192-0.1,1.3,1.3,0,0,0-.275-0.08l-3.282.02a0.839,0.839,0,0,0-.682.23l-0.048.07a0.374,0.374,0,0,0-.036.19,0.938,0.938,0,0,0,.072.32c0.479,1.12,1,2.19,1.562,3.23s1.052,1.87,1.467,2.5,0.839,1.23,1.27,1.79,0.716,0.92.856,1.08,0.249,0.28.329,0.36l0.3,0.28a6.605,6.605,0,0,0,.844.68,13.854,13.854,0,0,0,1.233.79,7.451,7.451,0,0,0,1.575.63,5.6,5.6,0,0,0,1.749.19h1.377a0.942,0.942,0,0,0,.635-0.26l0.047-.06a0.82,0.82,0,0,0,.09-0.22,1.2,1.2,0,0,0,.042-0.32,3.861,3.861,0,0,1,.078-0.92,2.336,2.336,0,0,1,.2-0.62,1.407,1.407,0,0,1,.258-0.35,0.858,0.858,0,0,1,.2-0.17,0.284,0.284,0,0,1,.095-0.04,0.731,0.731,0,0,1,.677.18,4.215,4.215,0,0,1,.731.69c0.227,0.27.5,0.58,0.82,0.92a5.846,5.846,0,0,0,.838.76l0.24,0.14a3.268,3.268,0,0,0,.623.26,1.337,1.337,0,0,0,.67.06l3.066-.05a1.383,1.383,0,0,0,.706-0.15,0.583,0.583,0,0,0,.3-0.32,0.952,0.952,0,0,0,.006-0.41A1.451,1.451,0,0,0,877.878,2106.74Z" transform="translate(-855 -2095)"/>
</svg>
