<svg xmlns="http://www.w3.org/2000/svg" width="18" height="15" viewBox="0 0 18 15">
  <defs>
    <style>
      .cls-1 {
        fill-rule: evenodd;
      }
    </style>
  </defs>
  <path class="cls-1" d="M787.011,2095.78a7.549,7.549,0,0,1-2.122.6,3.78,3.78,0,0,0,1.625-2.1,7.165,7.165,0,0,1-2.346.92,3.638,3.638,0,0,0-2.7-1.2,3.745,3.745,0,0,0-3.694,3.79,3.8,3.8,0,0,0,.1.86,10.375,10.375,0,0,1-7.614-3.95,3.84,3.84,0,0,0-.5,1.9,3.8,3.8,0,0,0,1.643,3.15,3.653,3.653,0,0,1-1.673-.47c0,0.02,0,.03,0,0.05a3.769,3.769,0,0,0,2.964,3.71,3.484,3.484,0,0,1-.973.13,3.986,3.986,0,0,1-.7-0.06,3.717,3.717,0,0,0,3.451,2.63,7.329,7.329,0,0,1-4.588,1.62,6.422,6.422,0,0,1-.881-0.06,10.227,10.227,0,0,0,5.663,1.7c6.795,0,10.511-5.77,10.511-10.77,0-.16,0-0.33-0.011-0.49a7.532,7.532,0,0,0,1.843-1.96h0Z" transform="translate(-769 -2094)"/>
</svg>
