<svg xmlns="http://www.w3.org/2000/svg" width="16" height="22" viewBox="0 0 16 22">
  <defs>
    <style>
      .cls-1 {
        fill: #fff;
        fill-rule: evenodd;
      }
    </style>
  </defs>
  <path class="cls-1" d="M837.831,41.988h-1.625l-0.989,4.081h-0.1l-1.038-4.081h-1.611l1.9,6.163V52.2h1.6V47.962l1.861-5.974h0Zm0.487,9.832a2,2,0,0,0,1.485.568h0.014a1.906,1.906,0,0,0,2.064-2.067V46.43a1.875,1.875,0,0,0-.562-1.407,1.983,1.983,0,0,0-1.445-.547,2.207,2.207,0,0,0-1.541.519,1.784,1.784,0,0,0-.574,1.394v3.9a2.086,2.086,0,0,0,.559,1.528h0Zm0.9-5.489h0a0.521,0.521,0,0,1,.163-0.4,0.592,0.592,0,0,1,.422-0.151,0.669,0.669,0,0,1,.455.151,0.508,0.508,0,0,1,.173.4v4.1a0.647,0.647,0,0,1-.17.476,0.609,0.609,0,0,1-.458.173,0.555,0.555,0,0,1-.434-0.169,0.7,0.7,0,0,1-.151-0.48v-4.1h0Zm6.5-1.665v5.717a2.04,2.04,0,0,1-.44.405,0.775,0.775,0,0,1-.4.158,0.333,0.333,0,0,1-.288-0.12,0.658,0.658,0,0,1-.089-0.387V44.666h-1.421v6.3a1.682,1.682,0,0,0,.249,1.006,0.867,0.867,0,0,0,.742.335,1.689,1.689,0,0,0,.826-0.239,3.145,3.145,0,0,0,.817-0.7V52.2h1.419V44.666h-1.419Zm-4,13.013a0.459,0.459,0,0,0-.205.05,0.729,0.729,0,0,0-.2.157V61.1a0.851,0.851,0,0,0,.231.181,0.511,0.511,0,0,0,.234.056,0.311,0.311,0,0,0,.262-0.109,0.586,0.586,0,0,0,.084-0.355V58.211a0.638,0.638,0,0,0-.1-0.4A0.356,0.356,0,0,0,841.724,57.679ZM845.3,57.7a0.382,0.382,0,0,0-.333.141,0.814,0.814,0,0,0-.1.464v0.521h0.858V58.3a0.814,0.814,0,0,0-.1-0.464A0.371,0.371,0,0,0,845.3,57.7Zm2.6-1.967a2.284,2.284,0,0,0-2.312-2.252q-2.6-.107-5.3-0.105h-0.565q-2.7,0-5.3.105A2.283,2.283,0,0,0,832.1,55.73c-0.077.985-.11,1.97-0.107,2.955s0.03,1.97.107,2.956a2.283,2.283,0,0,0,2.311,2.253q2.609,0.108,5.328.1h0.514q2.718,0,5.328-.1a2.284,2.284,0,0,0,2.312-2.253c0.077-.985.11-1.97,0.108-2.956S847.97,56.715,847.893,55.73ZM835.5,62.076h-1.094V56.108h-1.131V55.095h3.357v1.013H835.5v5.968Zm3.891,0h-0.972V61.507a2.1,2.1,0,0,1-.558.479,1.143,1.143,0,0,1-.564.164,0.589,0.589,0,0,1-.507-0.23,1.151,1.151,0,0,1-.172-0.69v-4.3h0.971v3.947a0.448,0.448,0,0,0,.062.266,0.229,0.229,0,0,0,.2.081,0.529,0.529,0,0,0,.27-0.108,1.353,1.353,0,0,0,.3-0.277V56.926h0.972v5.15Zm3.738-1.068a1.343,1.343,0,0,1-.228.841,0.79,0.79,0,0,1-.66.291,1.107,1.107,0,0,1-.508-0.113,1.3,1.3,0,0,1-.415-0.348v0.4h-0.98V55.095h0.98v2.247a1.486,1.486,0,0,1,.417-0.358,0.914,0.914,0,0,1,.447-0.123,0.822,0.822,0,0,1,.7.33,1.607,1.607,0,0,1,.243.962v2.856Zm3.589-1.388h-1.857v0.972a1.167,1.167,0,0,0,.1.563,0.355,0.355,0,0,0,.328.157,0.392,0.392,0,0,0,.338-0.133,1.152,1.152,0,0,0,.1-0.588V60.236h1v0.387a1.716,1.716,0,0,1-.365,1.193,1.4,1.4,0,0,1-1.09.4,1.3,1.3,0,0,1-1.027-.424,1.709,1.709,0,0,1-.374-1.169V58.311a1.5,1.5,0,0,1,.411-1.093,1.421,1.421,0,0,1,1.063-.422,1.319,1.319,0,0,1,1.025.391,1.608,1.608,0,0,1,.357,1.124v1.31Z" transform="translate(-832 -42)"/>
</svg>
